name C:/MyDriveSym/Projects/mobilecap/Data\Session20210820_0002\mocap\ForceDataProcessed\walkingTS1_forces.mot
datacolumns 19
datarows 17
range 0.37450000 0.38250000
endheader 
time	R_ground_force_vx	R_ground_force_vy	R_ground_force_vz	R_ground_force_px	R_ground_force_py	R_ground_force_pz	R_ground_torque_x	R_ground_torque_y	R_ground_torque_z	L_ground_force_vx	L_ground_force_vy	L_ground_force_vz	L_ground_force_px	L_ground_force_py	L_ground_force_pz	L_ground_torque_x	L_ground_torque_y	L_ground_torque_z	
          0.37450000	         33.01007600	        697.72906900	        -42.09219600	          0.20360800	          0.00600000	         -0.08874700	          0.00000000	         -1.60847200	          0.00000000	          0.00000000	          0.00000000	          0.00000000	          0.77593600	          0.00000000	         -0.20661400	          0.00000000	          0.00000000	          0.00000000	
          0.37500000	         33.20703800	        698.19817700	        -42.05050300	          0.20378800	          0.00600000	         -0.08881100	          0.00000000	         -1.63365700	          0.00000000	          0.00000000	          0.00000000	          0.00000000	          0.77593600	          0.00000000	         -0.20661400	          0.00000000	          0.00000000	          0.00000000	
          0.37550000	         33.40321100	        698.67075700	        -42.00847800	          0.20396900	          0.00600000	         -0.08887600	          0.00000000	         -1.65874500	          0.00000000	          0.00000000	          0.00000000	          0.00000000	          0.77593600	          0.00000000	         -0.20661400	          0.00000000	          0.00000000	          0.00000000	
          0.37600000	         33.59859100	        699.14677000	        -41.96612400	          0.20415100	          0.00600000	         -0.08894100	          0.00000000	         -1.68373600	          0.00000000	          0.00000000	          0.00000000	          0.00000000	          0.77593600	          0.00000000	         -0.20661400	          0.00000000	          0.00000000	          0.00000000	
          0.37650000	         33.79317400	        699.62617800	        -41.92344500	          0.20433400	          0.00600000	         -0.08900600	          0.00000000	         -1.70862700	          0.00000000	          0.00000000	          0.00000000	          0.00000000	          0.77593600	          0.00000000	         -0.20661400	          0.00000000	          0.00000000	          0.00000000	
          0.37700000	         33.98695300	        700.10893900	        -41.88044600	          0.20451800	          0.00600000	         -0.08907100	          0.00000000	         -1.73341600	          0.00000000	          0.00000000	          0.00000000	          0.00000000	          0.77593600	          0.00000000	         -0.20661400	          0.00000000	          0.00000000	          0.00000000	
          0.37750000	         34.17992500	        700.59501400	        -41.83712900	          0.20470300	          0.00600000	         -0.08913600	          0.00000000	         -1.75810300	          0.00000000	          0.00000000	          0.00000000	          0.00000000	          0.77593600	          0.00000000	         -0.20661400	          0.00000000	          0.00000000	          0.00000000	
          0.37800000	         34.37208600	        701.08436300	        -41.79350000	          0.20489000	          0.00600000	         -0.08920000	          0.00000000	         -1.78268400	          0.00000000	          0.00000000	          0.00000000	          0.00000000	          0.77593600	          0.00000000	         -0.20661400	          0.00000000	          0.00000000	          0.00000000	
          0.37850000	         34.56343000	        701.57694400	        -41.74956100	          0.20507700	          0.00600000	         -0.08926500	          0.00000000	         -1.80715900	          0.00000000	          0.00000000	          0.00000000	          0.00000000	          0.77593600	          0.00000000	         -0.20661400	          0.00000000	          0.00000000	          0.00000000	
          0.37900000	         34.75395400	        702.07271700	        -41.70531800	          0.20526600	          0.00600000	         -0.08933000	          0.00000000	         -1.83152600	          0.00000000	          0.00000000	          0.00000000	          0.00000000	          0.77593600	          0.00000000	         -0.20661400	          0.00000000	          0.00000000	          0.00000000	
          0.37950000	         34.94365300	        702.57163900	        -41.66077400	          0.20545500	          0.00600000	         -0.08939500	          0.00000000	         -1.85578300	          0.00000000	          0.00000000	          0.00000000	          0.00000000	          0.77593600	          0.00000000	         -0.20661400	          0.00000000	          0.00000000	          0.00000000	
          0.38000000	         35.13252200	        703.07367000	        -41.61593400	          0.20564600	          0.00600000	         -0.08946000	          0.00000000	         -1.87992800	          0.00000000	          0.00000000	          0.00000000	          0.00000000	          0.77593600	          0.00000000	         -0.20661400	          0.00000000	          0.00000000	          0.00000000	
          0.38050000	         35.32055800	        703.57876600	        -41.57080200	          0.20583700	          0.00600000	         -0.08952400	          0.00000000	         -1.90396000	          0.00000000	          0.00000000	          0.00000000	          0.00000000	          0.77593600	          0.00000000	         -0.20661400	          0.00000000	          0.00000000	          0.00000000	
          0.38100000	         35.50775600	        704.08688700	        -41.52538400	          0.20603000	          0.00600000	         -0.08958900	          0.00000000	         -1.92787800	          0.00000000	          0.00000000	          0.00000000	          0.00000000	          0.77593600	          0.00000000	         -0.20661400	          0.00000000	          0.00000000	          0.00000000	
          0.38150000	         35.69411200	        704.59798800	        -41.47968200	          0.20622400	          0.00600000	         -0.08965400	          0.00000000	         -1.95167800	          0.00000000	          0.00000000	          0.00000000	          0.00000000	          0.77593600	          0.00000000	         -0.20661400	          0.00000000	          0.00000000	          0.00000000	
          0.38200000	         35.87962300	        705.11202800	        -41.43370300	          0.20641800	          0.00600000	         -0.08971800	          0.00000000	         -1.97536100	          0.00000000	          0.00000000	          0.00000000	          0.00000000	          0.77593600	          0.00000000	         -0.20661400	          0.00000000	          0.00000000	          0.00000000	
          0.38250000	         36.06428300	        705.62896200	        -41.38745200	          0.20661400	          0.00600000	         -0.08978300	          0.00000000	         -1.99892400	          0.00000000	          0.00000000	          0.00000000	          0.00000000	          0.77593600	          0.00000000	         -0.20661400	          0.00000000	          0.00000000	          0.00000000	
